<svg width="65" height="65" viewBox="0 0 65 65" fill="none" xmlns="http://www.w3.org/2000/svg">
<g id="Group">
<path id="Vector" d="M15.4336 0.5H49.5664C57.6069 0.5 64.125 7.0181 64.125 15.0586V49.1914C64.125 57.2319 57.6069 63.75 49.5664 63.75H15.4336C7.3931 63.75 0.875 57.2319 0.875 49.1914V15.0586C0.875 7.0181 7.3931 0.5 15.4336 0.5Z" fill="white" stroke="black"/>
<g id="Clip path group">
<mask id="mask0_66_41" style="mask-type:luminance" maskUnits="userSpaceOnUse" x="15" y="7" width="35" height="51">
<g id="skillIconsFigmaDark0">
<path id="Vector_2" d="M16.1846 7.52734H48.6548V56.7227H16.1846V7.52734Z" fill="white" stroke="white"/>
</g>
</mask>
<g mask="url(#mask0_66_41)">
<g id="Group_2">
<path id="Vector_3" d="M31.4198 48.8568C31.4198 52.9225 28.1197 56.2226 24.054 56.2226C19.9883 56.2226 16.688 52.9224 16.688 48.8568C16.688 44.7911 19.9884 41.4907 24.054 41.4907H31.4198V48.8568Z" stroke="black" stroke-width="2"/>
<path id="Vector_4" d="M16.688 32.1251C16.688 28.0594 19.9883 24.7593 24.054 24.7593H31.4198V39.4909H24.054C19.9883 39.4909 16.688 36.1907 16.688 32.1251Z" stroke="black" stroke-width="2"/>
<path id="Vector_5" d="M16.688 15.3931C16.688 11.3275 19.9883 8.02734 24.054 8.02734H31.4198V22.7592H24.054C19.9884 22.7592 16.688 19.4588 16.688 15.3931Z" stroke="black" stroke-width="2"/>
<path id="Vector_6" d="M30.4314 8.02734H37.7972C41.8629 8.02734 45.1633 11.3275 45.1633 15.3931C45.1633 19.4588 41.8629 22.7592 37.7972 22.7592H30.4314V8.02734Z" stroke="black" stroke-width="2"/>
<path id="Vector_7" d="M48.1515 32.1251C48.1515 36.1907 44.8512 39.4909 40.7855 39.4909C36.7198 39.4909 33.4197 36.1908 33.4197 32.1251C33.4197 28.0594 36.7198 24.7593 40.7855 24.7593C44.8512 24.7593 48.1515 28.0594 48.1515 32.1251Z" stroke="black" stroke-width="2"/>
</g>
</g>
</g>
</g>
</svg>
