<svg width="59" height="59" viewBox="0 0 59 59" fill="none" xmlns="http://www.w3.org/2000/svg">
<path id="Vector" d="M44.25 0H14.75C10.8381 0 7.08634 1.55401 4.32018 4.32018C1.55401 7.08634 0 10.8381 0 14.75V44.25C0 48.1619 1.55401 51.9137 4.32018 54.6798C7.08634 57.446 10.8381 59 14.75 59H44.25C48.1619 59 51.9137 57.446 54.6798 54.6798C57.446 51.9137 59 48.1619 59 44.25V14.75C59 10.8381 57.446 7.08634 54.6798 4.32018C51.9137 1.55401 48.1619 0 44.25 0ZM26.55 32.45C25.0623 33.398 23.3554 33.9466 21.594 34.043H17.641C16.815 34.043 16.815 34.043 16.815 34.8395V41.6835C16.815 42.2735 16.638 42.4505 16.048 42.4505H12.154C11.5935 42.4505 11.446 42.244 11.446 41.713V16.8445C11.446 16.2545 11.446 16.0775 12.1835 16.0775H21.417C23.1024 16.1232 24.7479 16.6006 26.196 17.464C27.4466 18.1687 28.4879 19.1927 29.2135 20.4313C29.9391 21.67 30.323 23.079 30.326 24.5145C30.4966 26.0575 30.2337 27.6175 29.5667 29.0193C28.8996 30.4211 27.855 31.6092 26.55 32.45ZM44.014 42.185C41.4477 43.1809 38.64 43.3763 35.9605 42.7455C35.1581 42.5685 34.3675 42.3325 33.6005 42.0375C33.4819 41.9819 33.3777 41.8997 33.2958 41.7974C33.214 41.6951 33.1567 41.5754 33.1285 41.4475V36.993C34.0725 37.347 34.9575 37.76 35.872 38.055C37.4046 38.5448 39.0273 38.6859 40.6215 38.468C40.9372 38.409 41.2469 38.3116 41.536 38.173C41.7089 38.0973 41.8592 37.978 41.9722 37.8269C42.0853 37.6758 42.1572 37.4979 42.181 37.3107C42.2047 37.1234 42.1796 36.9332 42.1079 36.7586C42.0362 36.584 41.9205 36.431 41.772 36.3145C41.0972 35.8473 40.3754 35.4519 39.6185 35.1345C38.409 34.5445 37.17 34.0725 36.0195 33.394C34.9807 32.8886 34.1326 32.0617 33.6012 31.036C33.0697 30.0103 32.8833 28.8406 33.0695 27.7005C33.2195 26.6032 33.6754 25.5704 34.3849 24.72C35.0944 23.8697 36.0289 23.2362 37.0815 22.892C38.979 22.2516 41.0032 22.0795 42.9815 22.3905C43.9255 22.3905 44.84 22.7445 45.784 22.9215C46.2855 22.9215 46.4625 23.3345 46.433 23.836V27.2875C46.433 27.9365 46.2855 27.9955 45.6955 27.7595C43.853 26.9065 41.8164 26.5602 39.7955 26.7565C39.5092 26.7898 39.2302 26.8695 38.9695 26.9925C38.7925 27.062 38.6368 27.1765 38.5177 27.3247C38.3986 27.4729 38.3202 27.6496 38.2904 27.8374C38.2606 28.0251 38.2804 28.2174 38.3477 28.3952C38.4151 28.573 38.5277 28.7301 38.6745 28.851C39.5271 29.4174 40.4239 29.913 41.359 30.326C42.48 30.8865 43.66 31.329 44.7515 31.9485C45.7419 32.3992 46.5624 33.1547 47.0931 34.1046C47.6238 35.0546 47.837 36.1493 47.7015 37.229C47.6083 38.3061 47.2087 39.3339 46.5501 40.1912C45.8914 41.0485 45.0012 41.6994 43.9845 42.067L44.014 42.185Z" fill="white"/>
</svg>
