<svg width="61" height="60" viewBox="0 0 61 60" fill="none" xmlns="http://www.w3.org/2000/svg">
<path id="Vector" d="M45.5 0H15.5C11.5218 0 7.70644 1.58035 4.8934 4.3934C2.08035 7.20644 0.5 11.0218 0.5 15V45C0.5 48.9782 2.08035 52.7936 4.8934 55.6066C7.70644 58.4196 11.5218 60 15.5 60H45.5C49.4782 60 53.2936 58.4196 56.1066 55.6066C58.9196 52.7936 60.5 48.9782 60.5 45V15C60.5 11.0218 58.9196 7.20644 56.1066 4.3934C53.2936 1.58035 49.4782 0 45.5 0ZM37.97 44.34H33.29C33.1033 44.3659 32.9139 44.3176 32.7625 44.2054C32.611 44.0932 32.5096 43.9261 32.48 43.74C31.91 42.06 31.31 40.38 30.74 38.67C30.722 38.5628 30.6827 38.4603 30.6243 38.3686C30.5659 38.2769 30.4896 38.1979 30.4 38.1363C30.3104 38.0747 30.2094 38.0318 30.1029 38.0101C29.9963 37.9884 29.8865 37.9884 29.78 38.01H21.8C21.6892 37.9839 21.5741 37.9814 21.4622 38.0027C21.3504 38.024 21.2443 38.0687 21.1509 38.1338C21.0574 38.1989 20.9788 38.283 20.9201 38.3806C20.8613 38.4781 20.8238 38.587 20.81 38.7C20.3 40.38 19.73 42 19.22 43.68C19.2057 43.786 19.1698 43.8879 19.1145 43.9795C19.0592 44.071 18.9856 44.1502 18.8984 44.2121C18.8112 44.2739 18.7122 44.3173 18.6075 44.3393C18.5028 44.3613 18.3948 44.3615 18.29 44.34H14.18C13.46 44.34 13.4 44.34 13.64 43.59L20.12 24.9C20.72 23.19 21.32 21.48 21.86 19.77C22.0127 19.2638 22.0935 18.7387 22.1 18.21C22.1 17.58 22.34 17.43 22.91 17.46H28.64C29.06 17.46 29.27 17.46 29.42 18.03L36.8 38.82C37.37 40.44 37.94 42.03 38.48 43.62C38.72 44.28 38.69 44.34 37.97 44.34ZM47.15 43.83C47.15 44.34 46.94 44.49 46.46 44.49H42.14C41.54 44.49 41.39 44.25 41.39 43.71V24.87C41.39 24.27 41.57 24.03 42.2 24.06H46.43C46.91 24.06 47.15 24.06 47.15 24.72C47.129 31.08 47.129 37.449 47.15 43.83ZM44.15 21.93C43.7201 21.9573 43.2894 21.8917 42.8872 21.7377C42.4849 21.5837 42.1206 21.3448 41.8188 21.0374C41.5171 20.73 41.2851 20.3613 41.1387 19.9562C40.9922 19.5511 40.9347 19.1193 40.97 18.69C40.9742 18.2634 41.0634 17.842 41.2322 17.4502C41.401 17.0584 41.6462 16.7042 41.9534 16.4082C42.2605 16.1122 42.6236 15.8803 43.0213 15.7261C43.4191 15.5719 43.8436 15.4984 44.27 15.51C44.685 15.5087 45.0958 15.5935 45.4763 15.759C45.8569 15.9245 46.1989 16.1672 46.4809 16.4718C46.7629 16.7763 46.9786 17.136 47.1144 17.5281C47.2502 17.9203 47.3032 18.3363 47.27 18.75C47.2946 19.1588 47.2352 19.5684 47.0955 19.9534C46.9557 20.3384 46.7386 20.6907 46.4576 20.9887C46.1765 21.2866 45.8374 21.5238 45.4612 21.6857C45.085 21.8476 44.6796 21.9307 44.27 21.93H44.15Z" fill="white"/>
</svg>
