<svg width="53" height="53" viewBox="0 0 53 53" fill="none" xmlns="http://www.w3.org/2000/svg">
<g id="whatsapp__logo" clip-path="url(#clip0_67_115)">
<g id="Group">
<path id="Vector" fill-rule="evenodd" clip-rule="evenodd" d="M26.5001 4.41675C14.3035 4.41675 4.41675 14.3035 4.41675 26.5001C4.41675 30.6738 5.57612 34.5826 7.59233 37.9127L5.6225 44.6084C5.5094 44.9928 5.50196 45.4006 5.60095 45.789C5.69995 46.1773 5.90174 46.5317 6.18509 46.8151C6.46845 47.0984 6.82291 47.3002 7.21121 47.3992C7.59951 47.4982 8.00732 47.4908 8.39175 47.3777L15.0874 45.4078C18.5295 47.4905 22.477 48.5889 26.5001 48.5834C38.6967 48.5834 48.5834 38.6967 48.5834 26.5001C48.5834 14.3035 38.6967 4.41675 26.5001 4.41675ZM21.5048 31.4975C25.9723 35.9628 30.2366 36.5524 31.7427 36.6076C34.0327 36.6915 36.2631 34.9425 37.131 32.9131C37.2406 32.6606 37.2803 32.3834 37.2462 32.1103C37.212 31.8372 37.1051 31.5783 36.9367 31.3606C35.7265 29.8148 34.0901 28.704 32.4913 27.5998C32.1575 27.369 31.7473 27.2764 31.3467 27.3415C30.9461 27.4065 30.5862 27.6242 30.3426 27.9487L29.0176 29.9694C28.9479 30.078 28.8394 30.1559 28.7142 30.1871C28.5889 30.2183 28.4565 30.2004 28.344 30.1372C27.4452 29.6227 26.1357 28.7482 25.195 27.8074C24.2542 26.8667 23.4327 25.6167 22.9712 24.7754C22.9139 24.6685 22.8974 24.5445 22.9246 24.4263C22.9518 24.3081 23.0209 24.2039 23.1191 24.1327L25.1596 22.6178C25.4508 22.3646 25.6388 22.0132 25.6876 21.6304C25.7365 21.2476 25.6429 20.8602 25.4246 20.542C24.4353 19.0933 23.2825 17.2516 21.6108 16.0304C21.3951 15.874 21.1424 15.7765 20.8775 15.7475C20.6127 15.7185 20.3448 15.7589 20.1003 15.8647C18.0687 16.7348 16.3108 18.9652 16.3947 21.2597C16.45 22.7658 17.0396 27.0301 21.5048 31.4975Z" fill="black"/>
</g>
</g>
<defs>
<clipPath id="clip0_67_115">
<rect width="53" height="53" fill="white"/>
</clipPath>
</defs>
</svg>
